<svg xmlns="http://www.w3.org/2000/svg"><symbol id="bone-icon" viewBox="0 0 308.7 316.1"><path fill="#135c75" stroke="#135c75" stroke-miterlimit="10" stroke-width="9" d="M143.2 196.4l-48.4-.3c-5.9 0-12.3.1-17.2 3.5-7 5-8 14.7-11.7 22.4a29.2 29.2 0 0 1-15.8 14.9 23.9 23.9 0 0 1-21.3-2.3c-6.4-4.3-10-11.9-11.6-19.4a50.4 50.4 0 0 1 8.7-39.6 12.7 12.7 0 0 0 2.6-4.7c.7-3.3-1.6-6.4-3.6-9.3a52.9 52.9 0 0 1-8.8-36.6c1.4-10.4 7-21.2 17-24.3 6.4-2 13.5-.4 19 3.3s9.7 9.1 12.8 15c1.6 3.1 3.1 6.5 5.9 8.7s8.5 2.9 13 2.9l73.8.2v-3.3a84.7 84.7 0 0 0-15.6-.6c-5.1.3-10.1.3-15.2.2H95.1l-15 .2c-5.2.1-7.7-1.8-9.5-6.4a42.7 42.7 0 0 0-13.2-17.1C40.2 90.1 20.8 96 14.7 117.1c-4.7 16.1-1.9 31.6 6.8 45.7 3 4.8 3.4 7.8.2 12.9-9.1 14.3-11.8 30.1-6.2 46.5 6.7 19.5 26.9 25.4 43.2 12.7a46.1 46.1 0 0 0 17.1-27.2c1.4-6.7 4.3-8.2 10.6-8.1 29.4.3 58.8.1 88.3.1 17.2 0 34.4.2 51.6-.2 5.3-.1 7.7 1.6 8.7 6.8a46.7 46.7 0 0 0 14.2 25.6c7.8 7.4 16.8 11.9 27.9 8.6s17-12.1 19.6-23c3.6-14.9.8-29-7.4-41.7-3.2-4.9-3.3-7.9-.2-12.9 9.2-15 12.6-31.2 6.3-48.4s-23.1-23.1-39.1-12.5a42.2 42.2 0 0 0-15.6 18.9c-2.2 5.1-5.3 6.6-10.6 6.5-19.5-.3-39.1-.6-58.6.1a17.7 17.7 0 0 1-4.9-.4c-2.9.3-8.1.3-11 .3 0 1.2 1.1 2.4 1.1 3.5 3.2 0 7.6.1 10.8-.1s9.4.1 14 .2h14.9l29.8-.2c4.7 0 9.7-.1 13.7-2.7s6.7-9.3 9.6-14.3c6.1-10.5 20.1-17.2 31.1-11.9 8 3.9 12.5 12.8 14 21.6a51.6 51.6 0 0 1-7.6 36.8c-1.9 2.9-4.2 5.9-4.1 9.3s2.3 6.3 4.2 9.1a48.4 48.4 0 0 1 7.2 36c-1.8 9-6.8 18-15.3 21.6s-20.2.4-27.4-6.5-11.1-16.5-13.7-26.1c-.6-2.1-1.1-4.3-2.7-5.7s-4.9-1.9-7.6-1.9h-84.4"/></symbol><symbol id="paw-icon" viewBox="0 0 308.7 316.1"><path fill="#e49825" d="M160 162.6c-3.8.3-7.6.4-11.3.9-11.5 1.7-22.3 5.3-30.9 13.4a197.1 197.1 0 0 0-17.7 19.2c-14.2 17.5-26.3 36.5-37.7 55.8a103.7 103.7 0 0 0-9.5 19.9c-4.9 14.8-.1 33.5 18.4 40.4a57.5 57.5 0 0 0 38.4 1c6.7-2.2 12.9-6.2 19.3-9.2 14.9-7.1 30.7-6.4 46.5-4.6 7.3.8 13.8 3.9 20.2 7.8 15.1 9.1 31.5 10.8 48.4 6.4 13.1-3.4 21.5-11.9 23.7-25.7 1.5-9.4-.9-17.9-5.2-26.1-12.1-22.6-26.6-43.6-42.2-63.9-3.8-4.9-7.9-9.4-11.8-14.2-12.7-15.3-29.4-20.8-48.6-21.1zm148.7-28.5c-.6-4.2-.8-8.4-1.7-12.4-4.2-19.9-20.8-28.2-39.2-19.5a55.9 55.9 0 0 0-21.6 18.4c-12.5 17.2-19.3 36.2-15.5 57.7 1.9 10.5 6.8 19.2 17.7 22.9 8.5 2.9 16.8 1.1 24.2-3.5 23.6-14.6 33.6-37 36.1-63.6zM0 136.8c.3 12.5 5 26.4 13.2 39.1 6.6 10.3 15 18.8 26.3 23.8 14.8 6.6 29.3 1.3 35.5-12.9a47.3 47.3 0 0 0 3.7-21.3A79.8 79.8 0 0 0 63.2 122c-7.1-9.8-15.7-17.9-27.5-21.8-14-4.6-26.5 1.2-32.2 14.7C.9 121.1 0 127.4 0 136.8zM209 0a41.2 41.2 0 0 1 21.7 13.7A71.8 71.8 0 0 1 245.1 44c5.1 22.4 3.5 44.2-6.5 65.1a51.2 51.2 0 0 1-15 18.9c-12.9 9.9-28.4 9.2-40.5-1.9s-16.4-22.2-19.4-36c-5.2-24-3.2-47.2 9.2-68.8 6-10.4 14.2-18.3 26.4-21 .2 0 .3-.3.4-.4zM108.5 0c4.4 2 9.2 3.5 13.2 6.2 10.1 6.8 16 17 19.8 28.2 8.6 25.4 7.8 50.5-3.8 74.9-3.9 8.3-9.5 15.4-17.3 20.5-12.4 8.1-26.8 6.7-38.2-3.7s-15.9-21.5-19-34.8c-5.2-22.5-3.7-44.5 6.5-65.4 5.2-10.7 12.5-19.6 24-24L99.3 0z"/><path fill="#e49825" d="M160 162.6c19.2.3 36 5.8 48.5 21.2 3.9 4.8 8.1 9.3 11.8 14.2 15.6 20.3 30.2 41.3 42.2 63.9 4.3 8.1 6.7 16.7 5.2 26.1-2.2 13.9-10.6 22.3-23.7 25.7-16.9 4.4-33.3 2.7-48.4-6.4-6.4-3.8-12.9-6.9-20.2-7.8-15.8-1.8-31.6-2.5-46.5 4.6-6.5 3.1-12.6 7-19.3 9.2a57.5 57.5 0 0 1-38.4-1c-18.5-6.9-23.3-25.6-18.4-40.4a103.7 103.7 0 0 1 9.5-19.9c11.4-19.4 23.5-38.4 37.7-55.8a197.1 197.1 0 0 1 17.7-19.2c8.6-8 19.4-11.7 30.9-13.4 3.8-.6 7.6-.7 11.4-1zm148.7-28.5c-2.5 26.6-12.4 49.1-36.1 63.7-7.4 4.6-15.6 6.4-24.2 3.5-10.8-3.7-15.8-12.4-17.7-22.9-3.8-21.6 3-40.5 15.5-57.7a55.9 55.9 0 0 1 21.6-18.4c18.4-8.6 35-.4 39.2 19.5.8 3.9 1.1 8 1.7 12.3zM0 136.8c0-9.3.9-15.7 3.5-21.7 5.7-13.6 18.2-19.3 32.2-14.7 11.8 3.9 20.5 11.9 27.5 21.8a79.8 79.8 0 0 1 15.5 43.4 47.3 47.3 0 0 1-3.7 21.2c-6.1 14.2-20.6 19.5-35.5 12.9-11.4-5-19.7-13.6-26.3-23.8C5 163.1.3 149.2 0 136.8z"/></symbol></svg>