<svg xmlns="http://www.w3.org/2000/svg"><symbol id="bone-icon" viewBox="0 0 308.7 316.1"><path fill="#283673" stroke="#283673" stroke-miterlimit="10" stroke-width="9" d="M230.1 127.4c5.3.1 8.4-1.4 10.6-6.5a42.2 42.2 0 0 1 15.6-18.9c16-10.6 32.6-5.3 39.2 12.7s2.9 33.4-6.3 48.4c-3.1 5-3 8.1.2 12.9 8.3 12.7 11.1 26.8 7.4 41.7-2.6 10.8-8.2 19.6-19.6 23s-20.1-1.2-27.9-8.6a46.7 46.7 0 0 1-14.3-25.5c-1-5.2-3.4-6.9-8.7-6.8-17.2.3-34.4.1-51.6.1-29.4 0-58.8.2-88.3-.1-6.3-.1-9.2 1.5-10.6 8.1a46.1 46.1 0 0 1-17.1 27.2c-16.2 12.7-36.5 6.8-43.2-12.7-5.6-16.4-2.9-32.2 6.2-46.5 3.3-5.2 2.9-8.1-.2-13-8.7-14.1-11.5-29.6-6.8-45.7 6.1-21.1 25.5-26.9 42.7-13.3A42.7 42.7 0 0 1 70.6 121c1.9 4.5 4.4 6.4 9.5 6.4z"/></symbol><symbol id="paw-icon" viewBox="0 0 308.7 316.1"><path fill="#283673" d="M160.3 162.6c-3.8.3-7.6.4-11.3.9-11.5 1.7-22.3 5.3-30.9 13.4a197.1 197.1 0 0 0-17.7 19.2c-14.2 17.5-26.3 36.5-37.7 55.8a103.7 103.7 0 0 0-9.5 19.9c-4.9 14.8-.1 33.5 18.4 40.4a57.5 57.5 0 0 0 38.4 1c6.7-2.2 12.9-6.2 19.3-9.2 14.9-7.1 30.7-6.4 46.5-4.6 7.3.8 13.8 3.9 20.2 7.8 15.1 9.1 31.5 10.8 48.4 6.4 13.1-3.4 21.5-11.9 23.7-25.7 1.5-9.4-.9-17.9-5.2-26.1-12.1-22.6-26.6-43.6-42.2-63.9-3.8-4.9-7.9-9.4-11.8-14.2-12.6-15.3-29.4-20.8-48.6-21.1zM309 134.1c-.6-4.2-.8-8.4-1.7-12.4-4.2-19.9-20.8-28.2-39.2-19.5a55.9 55.9 0 0 0-21.6 18.4c-12.5 17.2-19.3 36.2-15.5 57.7 1.9 10.5 6.8 19.2 17.7 22.9 8.5 2.9 16.8 1.1 24.2-3.5 23.7-14.6 33.7-37 36.1-63.6zM.4 136.8c.3 12.5 5 26.4 13.2 39.1 6.6 10.3 15 18.8 26.3 23.8 14.8 6.6 29.3 1.3 35.5-12.9a47.3 47.3 0 0 0 3.6-21.3A79.8 79.8 0 0 0 63.5 122c-7.1-9.8-15.7-17.9-27.5-21.8-14-4.5-26.5 1.3-32.2 14.8-2.5 6.1-3.5 12.4-3.4 21.8zM209.4 0A41.2 41.2 0 0 1 231 13.7 71.8 71.8 0 0 1 245.4 44c5.1 22.4 3.5 44.2-6.5 65.1a51.2 51.2 0 0 1-15 18.9c-12.9 9.9-28.4 9.2-40.5-1.9s-16.4-22.2-19.4-36c-5.2-24-3.2-47.2 9.2-68.8 6-10.4 14.2-18.3 26.4-21 .2 0 .3-.3.4-.4zM108.9 0c4.4 2 9.2 3.5 13.2 6.2 10.1 6.8 16 17 19.8 28.2 8.6 25.4 7.8 50.5-3.8 74.9-3.9 8.3-9.5 15.4-17.3 20.5-12.4 8.1-26.8 6.7-38.2-3.7s-15.9-21.5-19-34.8c-5.2-22.5-3.7-44.5 6.5-65.4 5.2-10.7 12.5-19.6 24-24L99.6 0z"/><path fill="#283673" d="M160.3 162.6c19.2.3 36 5.8 48.5 21.2 3.9 4.8 8.1 9.3 11.8 14.2 15.6 20.3 30.2 41.3 42.2 63.9 4.3 8.1 6.7 16.7 5.2 26.1-2.2 13.9-10.6 22.3-23.7 25.7-16.9 4.4-33.3 2.7-48.4-6.4-6.4-3.8-12.9-6.9-20.2-7.8-15.8-1.8-31.6-2.5-46.5 4.6-6.5 3.1-12.6 7-19.3 9.2a57.5 57.5 0 0 1-38.4-1c-18.5-6.9-23.3-25.6-18.4-40.4a103.7 103.7 0 0 1 9.5-19.9c11.4-19.4 23.5-38.4 37.7-55.8A197.1 197.1 0 0 1 118 177c8.6-8 19.4-11.7 30.9-13.4 3.8-.6 7.7-.7 11.4-1zM309 134.1c-2.5 26.6-12.4 49.1-36.1 63.7-7.4 4.6-15.6 6.4-24.2 3.5-10.8-3.7-15.8-12.4-17.7-22.9-3.8-21.6 3-40.5 15.5-57.7a55.9 55.9 0 0 1 21.6-18.4c18.4-8.6 35-.4 39.2 19.5.9 3.9 1.2 8 1.7 12.3zM.4 136.8c0-9.3.9-15.7 3.5-21.7C9.5 101.5 22 95.7 36 100.3c11.8 3.9 20.5 11.9 27.5 21.8A79.8 79.8 0 0 1 79 165.5a47.3 47.3 0 0 1-3.7 21.3c-6.1 14.2-20.6 19.5-35.5 12.9-11.4-5-19.7-13.6-26.3-23.8C5.3 163.1.7 149.2.4 136.8z"/></symbol></svg>