<svg id="Layer_1" data-name="Layer 1" xmlns="http://www.w3.org/2000/svg" width="244" height="61.1" viewBox="0 0 244 61.1"><title>wordmark</title><polyline points="0 24.7 34.2 0 68.2 24.4" fill="none" stroke="#283574" stroke-linecap="round" stroke-linejoin="round" stroke-width="4.66"/><path d="M34.4,31.7a10.5,10.5,0,0,0-14.9-3.6c-4.7,3.3-4.3,9.3-2.5,14.1a37.6,37.6,0,0,0,4.2,8.2c.9,1.4,2,2.8,3,4.1l3,4c-5.9.2-11.7,0-17.6,0v-34L34.1,7,58.8,24.4V58.5H43.1c3.1-5.9,7.4-11.1,9.3-17.7,1.4-4.8,1.1-10.6-3.6-13.4s-11.4-.3-14.1,4.5Z" fill="#283574" stroke="#283574" stroke-linecap="round" stroke-linejoin="round" stroke-width="2.14"/><path d="M79.8,35.1h5V51.7h7.1v3.6H79.8Z" fill="#283574"/><path d="M104.2,42a8.8,8.8,0,0,1,1.6,5.6,11,11,0,0,1-.4,3.2,7.1,7.1,0,0,1-1.3,2.5,6.2,6.2,0,0,1-2.2,1.7,7.4,7.4,0,0,1-3.1.6,8.3,8.3,0,0,1-3.1-.5,5.3,5.3,0,0,1-2.1-1.5,6.5,6.5,0,0,1-1.2-2.4,11.7,11.7,0,0,1-.4-3.2,11.2,11.2,0,0,1,.4-3.2,7,7,0,0,1,1.3-2.5,6.2,6.2,0,0,1,2.2-1.7A7.4,7.4,0,0,1,99,40Q102.5,40,104.2,42Zm-6.4,1.8a2,2,0,0,0-.6.9,5.6,5.6,0,0,0-.3,1.3q-.1.8-.1,1.6a15.5,15.5,0,0,0,.1,1.7,5.9,5.9,0,0,0,.3,1.4,2.2,2.2,0,0,0,.6.9,1.6,1.6,0,0,0,1.1.3,1.3,1.3,0,0,0,.9-.3,2.1,2.1,0,0,0,.6-.9,5.7,5.7,0,0,0,.3-1.3q.1-.7.1-1.6a15.4,15.4,0,0,0-.1-1.7,5.9,5.9,0,0,0-.3-1.4,2.2,2.2,0,0,0-.6-.9,1.6,1.6,0,0,0-1.1-.3A1.3,1.3,0,0,0,97.8,43.9Z" fill="#283574"/><path d="M121.1,48.4a9.1,9.1,0,0,0,.2,1.8l.4,1.6.4,1.6a8.6,8.6,0,0,1,.2,1.8,6.4,6.4,0,0,1-1.8,4.8,6.7,6.7,0,0,1-4.8,1.7,13.4,13.4,0,0,1-2.9-.3l-2.9-.9,1.1-3.7,2.3.7,2.1.3a2.7,2.7,0,0,0,1.9-.7,2.6,2.6,0,0,0,.7-2,6.1,6.1,0,0,0-.1-1.1,5.8,5.8,0,0,0-.3-1.1,4.6,4.6,0,0,1-2.1,2,7.1,7.1,0,0,1-2.9.6,4.8,4.8,0,0,1-2-.4,3.5,3.5,0,0,1-1.3-1.1,4.2,4.2,0,0,1-.7-1.6,9.5,9.5,0,0,1-.2-2.2v-10H113v9.4a4.7,4.7,0,0,0,.3,1.7.9.9,0,0,0,.9.6l.8-.3a2.8,2.8,0,0,0,.7-.8,4.9,4.9,0,0,0,.5-1.3,6.2,6.2,0,0,0,.2-1.7V40.3h4.8Z" fill="#283574"/><path d="M137.4,48.1a15.7,15.7,0,0,0,.2,3,8.9,8.9,0,0,0,.6,1.9,4.1,4.1,0,0,0,.8,1.4l-3.8,1.2-.6-.7-.5-.9a7.3,7.3,0,0,1-.4-1.3,4.7,4.7,0,0,1-1.5,2.2,4.2,4.2,0,0,1-2.6.8,5.7,5.7,0,0,1-2.6-.5,4.9,4.9,0,0,1-1.8-1.5,6.6,6.6,0,0,1-1.1-2.4,12.6,12.6,0,0,1-.3-3.1,8.9,8.9,0,0,1,.6-3.2,7.6,7.6,0,0,1,1.5-2.5,7,7,0,0,1,2.4-1.7,7.6,7.6,0,0,1,3.1-.6h2l1.9.3,1.5.3h.6Zm-6.1,3.5a3.4,3.4,0,0,0,.7-1.1,6.7,6.7,0,0,0,.5-1.5,9.6,9.6,0,0,0,.2-1.8V43.8l-.6-.2h-.6a2.1,2.1,0,0,0-1.2.3,2.2,2.2,0,0,0-.8.9,4.3,4.3,0,0,0-.4,1.3,11,11,0,0,0-.1,1.7q0,.8,0,1.6a6,6,0,0,0,.2,1.4,2.5,2.5,0,0,0,.5,1,1,1,0,0,0,.8.4A1.2,1.2,0,0,0,131.3,51.7Z" fill="#283574"/><path d="M143.1,55.2a3.5,3.5,0,0,1-1.2-.8,3.2,3.2,0,0,1-.7-1.2,4.8,4.8,0,0,1-.2-1.5V34.4l4.7-.8v17a1.5,1.5,0,0,0,.3,1,1.2,1.2,0,0,0,.9.3h1.5l.4,3-1.5.5a9.2,9.2,0,0,1-2.4.3A4.7,4.7,0,0,1,143.1,55.2Z" fill="#283574"/><path d="M158.5,35.1h6.2q3.8,0,5.8,1.5a5.1,5.1,0,0,1,1.9,4.4,5.1,5.1,0,0,1-.9,3.2,6.1,6.1,0,0,1-2.5,1.9,5.7,5.7,0,0,1,1.6,1.4,12.3,12.3,0,0,1,1.3,2q.6,1.2,1.3,2.7l1.4,3.4h-5.3l-1.6-3.7q-.7-1.6-1.2-2.7a6.8,6.8,0,0,0-1.1-1.7,1.8,1.8,0,0,0-1.3-.6h-.5v8.6h-5Zm5,8.6h1.3a2.6,2.6,0,0,0,1.8-.6,2.6,2.6,0,0,0,.7-2,4,4,0,0,0-.1-1.1,2.4,2.4,0,0,0-.4-.9,2.1,2.1,0,0,0-.8-.6l-1.3-.2h-1.1Z" fill="#283574"/><path d="M175.4,44.7a7.2,7.2,0,0,1,1.6-2.6,7,7,0,0,1,2.4-1.6,8.2,8.2,0,0,1,3-.5,7.4,7.4,0,0,1,2.4.3,4.3,4.3,0,0,1,1.6,1,3.8,3.8,0,0,1,.9,1.4,5.2,5.2,0,0,1,.3,1.8,4.1,4.1,0,0,1-.5,2,5.4,5.4,0,0,1-1.5,1.7,8.9,8.9,0,0,1-2.4,1.2,13.7,13.7,0,0,1-3.2.6,2.9,2.9,0,0,0,.8,1.5,2.3,2.3,0,0,0,1.7.6h1.4l1.4-.3,1.5-.5.9,3.1-1.8.7-1.9.5-2.3.2a8.2,8.2,0,0,1-3.1-.5,5.5,5.5,0,0,1-2.1-1.5,5.9,5.9,0,0,1-1.2-2.3,11.3,11.3,0,0,1-.4-3A10,10,0,0,1,175.4,44.7Zm5.5-1a2.3,2.3,0,0,0-.6.9,5.2,5.2,0,0,0-.4,1.2,9.7,9.7,0,0,0-.1,1.3l1.5-.3,1-.6a2.3,2.3,0,0,0,.6-.8,2,2,0,0,0,.2-.8,1.3,1.3,0,0,0-.3-.9,1.1,1.1,0,0,0-.8-.3A1.5,1.5,0,0,0,180.9,43.7Z" fill="#283574"/><path d="M194.8,40l2.1.2,1.7.4,1.6.6-1.5,3.4-.6-.3-.8-.4-.9-.3h-.9l-.8.2a.7.7,0,0,0-.3.7,1.3,1.3,0,0,0,.6.9l1.6.9a8,8,0,0,1,2.8,1.8,3.9,3.9,0,0,1,1,2.8,5,5,0,0,1-.3,1.8,4.3,4.3,0,0,1-1,1.5,4.9,4.9,0,0,1-1.7,1.1,6.5,6.5,0,0,1-2.3.4h-2l-1.7-.4-1.4-.4-1-.4,1.6-3.4.5.3.9.4,1.1.4,1.1.2,1-.2a.8.8,0,0,0,.4-.7,1.4,1.4,0,0,0-.5-1,4,4,0,0,0-1.3-.7,8.3,8.3,0,0,1-3.2-2,4.1,4.1,0,0,1-1-2.8,4.3,4.3,0,0,1,.4-1.8,4,4,0,0,1,1-1.4,5.1,5.1,0,0,1,1.7-.9A6.7,6.7,0,0,1,194.8,40Z" fill="#283574"/><path d="M211.2,44.6l-.7-.7a1.6,1.6,0,0,0-1-.3h-.8a1.8,1.8,0,0,0-.8.6,3.4,3.4,0,0,0-.6,1.3,8,8,0,0,0-.3,2.3,7.4,7.4,0,0,0,.3,2.3,3.4,3.4,0,0,0,.7,1.3,2.2,2.2,0,0,0,1,.6l1,.2h.8l.8-.2.6-.2h.3l.9,3.1H213l-.9.4-1.4.3h-1.8a8.3,8.3,0,0,1-3.2-.5,5.7,5.7,0,0,1-2.2-1.5,5.9,5.9,0,0,1-1.2-2.3,10.9,10.9,0,0,1-.4-3,10.5,10.5,0,0,1,.6-3.6,7.5,7.5,0,0,1,1.5-2.6,6.2,6.2,0,0,1,2.3-1.6,7.8,7.8,0,0,1,2.9-.5,5.5,5.5,0,0,1,2.6.6,5.1,5.1,0,0,1,1.8,1.5Z" fill="#283574"/><path d="M223.5,40.3h4.7v7.8a15.6,15.6,0,0,0,.2,3,8.9,8.9,0,0,0,.6,1.9,4.1,4.1,0,0,0,.8,1.4l-3.8,1.2-.5-.7-.5-.9a5.9,5.9,0,0,1-.4-1.2,4.7,4.7,0,0,1-2.1,2.1,6.8,6.8,0,0,1-3,.6,4.8,4.8,0,0,1-2-.4,3.5,3.5,0,0,1-1.3-1.1,4.2,4.2,0,0,1-.7-1.6,9.5,9.5,0,0,1-.2-2.2v-10H220v9.4a4.7,4.7,0,0,0,.3,1.7.9.9,0,0,0,.9.6,2,2,0,0,0,1.6-1.1,5.7,5.7,0,0,0,.7-3.1Z" fill="#283574"/><path d="M231.8,44.7a7.2,7.2,0,0,1,1.6-2.6,7,7,0,0,1,2.4-1.6,8.2,8.2,0,0,1,3-.5,7.4,7.4,0,0,1,2.4.3,4.3,4.3,0,0,1,1.6,1,3.8,3.8,0,0,1,.9,1.4,5.2,5.2,0,0,1,.3,1.8,4.1,4.1,0,0,1-.5,2,5.4,5.4,0,0,1-1.5,1.7,8.9,8.9,0,0,1-2.4,1.2,13.7,13.7,0,0,1-3.2.6,2.9,2.9,0,0,0,.8,1.5,2.3,2.3,0,0,0,1.7.6h1.4l1.4-.3,1.5-.5.9,3.1-1.8.7-1.9.5-2.3.2a8.2,8.2,0,0,1-3.1-.5,5.5,5.5,0,0,1-2.1-1.5,5.9,5.9,0,0,1-1.2-2.3,11.3,11.3,0,0,1-.4-3A10,10,0,0,1,231.8,44.7Zm5.5-1a2.3,2.3,0,0,0-.6.9,5.2,5.2,0,0,0-.4,1.2,9.7,9.7,0,0,0-.1,1.3l1.5-.3,1-.6a2.3,2.3,0,0,0,.6-.8,2,2,0,0,0,.2-.8,1.3,1.3,0,0,0-.3-.9,1.1,1.1,0,0,0-.8-.3A1.5,1.5,0,0,0,237.2,43.7Z" fill="#283574"/></svg>