<?xml version="1.0" encoding="utf-8"?>
<!-- Generator: Adobe Illustrator 22.0.1, SVG Export Plug-In . SVG Version: 6.00 Build 0)  -->
<svg version="1.1" id="Layer_1" xmlns="http://www.w3.org/2000/svg" xmlns:xlink="http://www.w3.org/1999/xlink" x="0px" y="0px"
	 viewBox="0 0 376 284" style="enable-background:new 0 0 376 284;" xml:space="preserve">
<style type="text/css">
	.st0{fill:#C5DFE6;}
</style>
<title>food bowl</title>
<path class="st0" d="M321.4,146.2c-1.8-5.1-6.7-8.5-12.1-8.5h-244c-5.4,0-10.3,3.4-12.1,8.5l-32.5,93.7c-2.3,6.7,1.2,14,7.9,16.3
	c1.4,0.5,2.8,0.7,4.2,0.7H342c7.1,0,12.8-5.7,12.8-12.8c0-1.4-0.2-2.9-0.7-4.2L321.4,146.2z M265.2,213.7
	c0.1,11.1-8.8,20.2-19.9,20.3c-8.8,0.1-16.6-5.5-19.3-13.8h-76.2c-3.5,10.5-14.8,16.3-25.4,12.8c-8.3-2.7-13.9-10.6-13.8-19.3
	c0-5.2,2-10.2,5.6-14l0.9-0.8c-4.1-3.9-6.4-9.3-6.4-14.9c-0.1-11.1,8.8-20.2,19.9-20.3c8.8-0.1,16.6,5.5,19.3,13.8H226
	c3.5-10.6,15-16.3,25.6-12.7s16.3,15,12.7,25.6c-1.1,3.3-3,6.2-5.6,8.6C262.9,202.7,265.2,208.1,265.2,213.7L265.2,213.7z"/>
<path class="st0" d="M290.1,61v16c-3.8,20.9-16.1,36.2-30.4,50.5h-139l-8.1-8.1c-8.4-8.2-14.8-18.2-18.7-29.2
	c-1.4-4-2.5-8.1-3.8-12.2V61c0.4-1.2,0.8-2.5,1.1-3.8c3.7-15.9,12.7-27.7,28.4-32.6c21.4-6.7,41.2-4,57.5,12.9l13,14.2l11.6-12.8
	c9.6-10.6,21.4-16.3,35.8-17.5c24.8-2,45.4,11.5,51.1,34.4L290.1,61z"/>
</svg>
