<?xml version="1.0" encoding="utf-8"?>
<!-- Generator: Adobe Illustrator 22.0.1, SVG Export Plug-In . SVG Version: 6.00 Build 0)  -->
<svg version="1.1" id="Layer_1" xmlns="http://www.w3.org/2000/svg" xmlns:xlink="http://www.w3.org/1999/xlink" x="0px" y="0px"
	 viewBox="0 0 32 32" style="enable-background:new 0 0 32 32;" xml:space="preserve">
<style type="text/css">
	.st0{fill:none;stroke:#D99728;stroke-width:2.05;stroke-linecap:round;stroke-linejoin:round;}
	.st1{fill:#D99728;stroke:#D99728;stroke-width:0.94;stroke-linecap:round;stroke-linejoin:round;}
</style>
<path class="st0" d="M1,15.1L16,4.2L31,15"/>
<path class="st1" d="M16.1,18.2c-1.2-2.2-4-3-6.2-1.8c-0.1,0.1-0.2,0.1-0.4,0.2c-2.1,1.5-1.9,4.1-1.1,6.2c0.5,1.3,1.1,2.5,1.9,3.6
	l1.3,1.8L13,30H5.2V15L16,7.3L26.9,15v15H20c1.4-2.6,3.3-4.9,4.1-7.8s0.5-4.7-1.6-5.9s-5-0.1-6.2,2C16.3,18.3,16.1,18.2,16.1,18.2z"
	/>
</svg>
