<?xml version="1.0" encoding="utf-8"?>
<!-- Generator: Adobe Illustrator 22.0.1, SVG Export Plug-In . SVG Version: 6.00 Build 0)  -->
<svg version="1.1" id="Layer_1" xmlns="http://www.w3.org/2000/svg" xmlns:xlink="http://www.w3.org/1999/xlink" x="0px" y="0px"
	 viewBox="0 0 16 16" style="enable-background:new 0 0 16 16;" xml:space="preserve">
<style type="text/css">
	.st0{fill:none;stroke:#D99728;stroke-linecap:round;stroke-linejoin:round;}
	.st1{fill:#D99728;stroke:#D99728;stroke-width:0.47;stroke-linecap:round;stroke-linejoin:round;}
</style>
<path class="st0" d="M0.6,7.3L8,1.9l7.4,5.3"/>
<path class="st1" d="M8.1,8.5C7.5,7.4,6.1,7,5,7.7H4.9c-1,0.7-0.9,2-0.6,3.1c0.2,0.6,0.5,1.2,0.9,1.8l0.7,0.9l0.6,0.9H2.7V7L8,3.1
	l5.4,3.8v7.4H10c0.8-1.2,1.5-2.5,2-3.8c0.4-1,0.1-2.2-0.8-2.9C10.1,7,8.7,7.5,8.1,8.5C8.1,8.6,8.1,8.6,8.1,8.5z"/>
</svg>
