<svg id="Layer_1" data-name="Layer 1" xmlns="http://www.w3.org/2000/svg" width="256" height="256" viewBox="0 0 256 256"><title>256px</title><polyline points="8 114.3 128.4 27.4 248 113.2" fill="none" stroke="#283574" stroke-linecap="round" stroke-linejoin="round" stroke-width="16.38"/><path d="M128.6,138.9c-10.2-18-34.9-24.7-52.3-12.5s-15.1,32.7-9,49.8a132.4,132.4,0,0,0,14.9,28.7c3.3,5,6.9,9.8,10.6,14.5s7,9.3,10.5,14c-20.6.6-41.2,0-61.9,0V113.8l86.2-61.6,87,61V233.3c-18.5.2-36.9.6-55.4.5,10.9-20.9,26.1-39.1,32.7-62.2,4.8-16.8,4-37.2-12.6-47.1s-40.3-1-49.8,16Z" fill="#283574" stroke="#283574" stroke-linecap="round" stroke-linejoin="round" stroke-width="7.52"/></svg>