<?xml version="1.0" encoding="utf-8"?>
<!-- Generator: Adobe Illustrator 22.0.1, SVG Export Plug-In . SVG Version: 6.00 Build 0)  -->
<svg version="1.1" id="Layer_1" xmlns="http://www.w3.org/2000/svg" xmlns:xlink="http://www.w3.org/1999/xlink" x="0px" y="0px"
	 viewBox="0 0 256 256" style="enable-background:new 0 0 256 256;" xml:space="preserve">
<style type="text/css">
	.st0{fill:none;stroke:#D99728;stroke-width:16.38;stroke-linecap:round;stroke-linejoin:round;}
	.st1{fill:#D99728;stroke:#D99728;stroke-width:7.52;stroke-linecap:round;stroke-linejoin:round;}
</style>
<path class="st0" d="M8,114.3l120.4-86.9L248,113.2"/>
<path class="st1" d="M128.6,138.9c-10.2-18-34.9-24.7-52.3-12.5s-15.1,32.7-9,49.8c3.8,10.1,8.8,19.8,14.9,28.7
	c3.3,5,6.9,9.8,10.6,14.5s7,9.3,10.5,14c-20.6,0.6-41.2,0-61.9,0V113.8l86.2-61.6l87,61v120.1c-18.5,0.2-36.9,0.6-55.4,0.5
	c10.9-20.9,26.1-39.1,32.7-62.2c4.8-16.8,4-37.2-12.6-47.1s-40.3-1-49.8,16L128.6,138.9z"/>
</svg>
