<svg id="Layer_1" data-name="Layer 1" xmlns="http://www.w3.org/2000/svg" width="16" height="16" viewBox="0 0 16 16"><title>16px</title><polyline points="0.6 7 8 1.6 15.4 6.9" fill="none" stroke="#231f20" stroke-linecap="round" stroke-linejoin="round" stroke-width="1.01"/><path d="M8.1,8.5a2.3,2.3,0,0,0-3.2-.8c-1,.7-.9,2-.6,3.1a8.2,8.2,0,0,0,.9,1.8l.7.9.6.9H2.7V7L8,3.1l5.4,3.8v7.4H10a21.3,21.3,0,0,0,2-3.8,2.4,2.4,0,0,0-.8-2.9,2.3,2.3,0,0,0-3.1,1Z" stroke="#000" stroke-linecap="round" stroke-linejoin="round" stroke-width="0.47"/></svg>