<?xml version="1.0" encoding="utf-8"?>
<!-- Generator: Adobe Illustrator 22.0.1, SVG Export Plug-In . SVG Version: 6.00 Build 0)  -->
<svg version="1.1" id="Layer_1" xmlns="http://www.w3.org/2000/svg" xmlns:xlink="http://www.w3.org/1999/xlink" x="0px" y="0px"
	 viewBox="0 0 64 64" style="enable-background:new 0 0 64 64;" xml:space="preserve">
<style type="text/css">
	.st0{fill:none;stroke:#D99728;stroke-width:4.08;stroke-linecap:round;stroke-linejoin:round;}
	.st1{fill:#D99728;stroke:#D99728;stroke-width:1.87;stroke-linecap:round;stroke-linejoin:round;}
</style>
<path class="st0" d="M2.3,29.8L32.2,8.1L62,29.5"/>
<path class="st1" d="M32.4,35.9c-2.5-4.4-8.2-5.9-12.6-3.4c-0.1,0.1-0.3,0.2-0.4,0.3c-4.1,2.9-3.8,8.2-2.2,12.4
	c0.9,2.5,2.2,5,3.7,7.2c0.8,1.2,1.7,2.4,2.6,3.6l2.6,3.5c-5.1,0.1-10.3,0-15.4,0V29.6l21.4-15.3l21.7,15.2v29.9H40
	c2.7-5.2,6.5-9.7,8.1-15.5c1.2-4.2,1-9.3-3.1-11.7s-10-0.3-12.4,4C32.6,36.2,32.4,35.9,32.4,35.9z"/>
</svg>
