<svg id="Layer_1" data-name="Layer 1" xmlns="http://www.w3.org/2000/svg" width="64" height="64" viewBox="0 0 64 64"><title>64px</title><polyline points="2.3 29.8 32.2 8.1 62 29.5" fill="none" stroke="#283574" stroke-linecap="round" stroke-linejoin="round" stroke-width="4.08"/><path d="M32.4,35.9a9.2,9.2,0,0,0-13-3.1c-4.1,2.9-3.8,8.2-2.2,12.4a33,33,0,0,0,3.7,7.2c.8,1.2,1.7,2.4,2.6,3.6l2.6,3.5c-5.1.1-10.3,0-15.4,0V29.6L32.1,14.3,53.8,29.5V59.4H40c2.7-5.2,6.5-9.7,8.1-15.5,1.2-4.2,1-9.3-3.1-11.7s-10-.3-12.4,4Z" fill="#283574" stroke="#283574" stroke-linecap="round" stroke-linejoin="round" stroke-width="1.87"/></svg>