<?xml version="1.0" encoding="utf-8"?>
<!-- Generator: Adobe Illustrator 22.0.1, SVG Export Plug-In . SVG Version: 6.00 Build 0)  -->
<svg version="1.1" id="Layer_1" xmlns="http://www.w3.org/2000/svg" xmlns:xlink="http://www.w3.org/1999/xlink" x="0px" y="0px"
	 viewBox="0 0 264 332" style="enable-background:new 0 0 264 332;" xml:space="preserve">
<style type="text/css">
	.st0{fill:#C5DFE6;}
</style>
<title>question mark</title>
<path class="st0" d="M109.4,193.6c-1.1-11.3-0.6-21,1.6-29c3.6-13.9,11.3-26.3,22.1-35.7c4.9-4.2,9.5-8.3,13.8-12.3
	c4-3.6,7.6-7.7,10.6-12.2c3-4.5,4.5-9.9,4.3-15.3c0-7.6-2.2-13.7-6.4-18.3s-11.9-6.9-22.8-6.9c-3.7,0-7.4,0.4-11.1,1.1
	c-4,0.8-8,1.9-11.8,3.3c-3.9,1.4-7.6,3-11.3,4.9c-3.4,1.7-6.6,3.7-9.7,5.8L72.3,47.5c8.9-6,18.5-10.7,28.7-14.1
	c10.8-3.7,23.9-5.6,39.2-5.6c20.5,0,36.6,5,48.1,15c11.6,9.9,17.4,23.3,17.4,40.1c0,11.1-1.5,20.4-4.4,27.7
	c-2.7,6.8-6.4,13.1-11,18.7c-4.3,5-9.1,9.6-14.4,13.6c-5.2,3.8-10,8-14.5,12.6c-4.4,4.6-8.2,9.8-11.1,15.5
	c-3.1,5.9-4.6,13.5-4.6,22.6H109.4z"/>
<g id="MXpnTa">
	<path class="st0" d="M158,232.8c-0.2-2.1-0.6-4.2-1-6.2c-0.7-3.7-2.6-7.1-5.3-9.7c-3.9-3.6-8.9-3.5-12.8,0.1
		c-1.8,1.7-3.2,3.8-4.1,6.1c-2.2,5.3-2.8,11.1-1.6,16.7c0.7,3.8,2.3,7.4,4.9,10.3c2.6,2.8,5.7,4.3,9.6,3.2c2.4-0.7,4.4-2.3,5.8-4.4
		C156.8,244.4,157.9,239.3,158,232.8z M128.6,232.8c-0.2-1.3-0.4-3.7-0.9-6c-0.8-3.8-2.7-7.3-5.5-10c-3.3-3.2-8.4-3.4-11.9-0.5
		c-1.8,1.5-3.3,3.4-4.3,5.5c-2.6,5.4-3.4,11.4-2.2,17.3c0.5,4,2.2,7.8,4.9,10.9c2.6,2.9,5.7,4.4,9.6,3.3c2.4-0.8,4.5-2.3,5.9-4.4
		C127.4,244.4,128.5,239.3,128.6,232.8z M175.7,253.4c-0.2-1.2-0.2-2.4-0.5-3.6c-1.2-5.9-6.1-8.3-11.5-5.7c-2.5,1.2-4.6,3-6.2,5.3
		c-3.6,5-5.6,10.6-4.5,16.9c0.2,2.5,1.7,4.7,3.8,6c2.8,1.7,5.7,1.2,8.3-0.4C172.1,267.7,175,261.2,175.7,253.4L175.7,253.4z
		 M100.6,273.3c2.4,0.1,4.6-1,6-2.9c1.5-2.3,2.2-5.1,2-7.9c-0.2-4.6-1.8-9-4.5-12.7c-2.1-2.8-4.6-5.2-8-6.3s-7.8,0.3-9.4,4.3
		c-0.6,1.5-1,3.2-1,4.8c-0.1,6.5,2.6,12.8,7.4,17.2C95.1,271.8,97.8,273.1,100.6,273.3L100.6,273.3z"/>
	<path class="st0" d="M110.5,306.4l-3.1-0.7c-6.3-1.8-7.8-7.7-6.3-12.2c0.7-2,1.7-4,2.8-5.8c3.2-5.7,6.9-11.1,10.9-16.2
		c1.6-2,3.3-3.9,5.2-5.6c2.4-2.2,5.5-3.6,8.8-3.9c3.9-0.7,7.8-0.2,11.5,1.2c2.6,1.1,4.9,2.9,6.6,5.2c6,6.9,11.1,14.4,15.5,22.4
		c1.4,2.5,1.8,5.3,1.3,8.1c-0.9,3.8-3.4,5.9-7.1,6.9l-2.6,0.6h-4.3c-1.1-0.2-2.1-0.5-3.2-0.8c-1.8-0.8-3.6-1.8-5.4-2.7
		c-4.3-2-8.9-1.8-13.5-1.3c-2.1,0.3-4.1,1.1-5.8,2.3c-2.2,1.3-4.5,2.1-7,2.5H110.5z"/>
	<path class="st0" d="M158,232.8c-0.1,6.5-1.2,11.6-4.5,16.1c-1.4,2.1-3.4,3.7-5.8,4.4c-3.9,1.1-7-0.4-9.6-3.2
		c-2.6-2.9-4.2-6.5-4.9-10.3c-1.2-5.6-0.6-11.4,1.6-16.7c0.9-2.3,2.3-4.4,4.1-6.1c3.9-3.6,8.9-3.7,12.8-0.1c2.7,2.6,4.6,6,5.3,9.7
		C157.4,228.6,157.8,230.7,158,232.8z"/>
	<path class="st0" d="M128.6,232.8c-0.1,6.5-1.2,11.6-4.4,16.1c-1.4,2.1-3.5,3.6-5.9,4.4c-3.9,1.1-7-0.4-9.6-3.3
		c-2.7-3.1-4.4-6.9-4.9-10.9c-1.2-5.9-0.4-11.9,2.2-17.3c1-2.1,2.5-4,4.3-5.5c3.5-2.9,8.6-2.7,11.9,0.5c2.8,2.7,4.7,6.2,5.5,10
		C128.2,229.1,128.4,231.5,128.6,232.8z"/>
	<path class="st0" d="M175.7,253.4c-0.7,7.8-3.6,14.3-10.6,18.5c-2.6,1.6-5.5,2.1-8.3,0.4c-2.1-1.3-3.6-3.5-3.8-6
		c-1.1-6.3,0.9-11.9,4.5-16.9c1.6-2.3,3.7-4.1,6.2-5.3c5.4-2.6,10.3-0.2,11.5,5.7C175.5,251,175.5,252.2,175.7,253.4z"/>
	<path class="st0" d="M100.6,273.3c-2.8-0.2-5.5-1.5-7.5-3.5c-4.8-4.4-7.5-10.7-7.4-17.2c0-1.6,0.4-3.3,1-4.8c1.6-4,5.3-5.6,9.4-4.3
		s5.9,3.5,8,6.3c2.7,3.7,4.3,8.1,4.5,12.7c0.2,2.8-0.5,5.6-2,7.9C105.2,272.3,103,273.4,100.6,273.3z"/>
</g>
</svg>
