<svg xmlns="http://www.w3.org/2000/svg" id="Layer_1" viewBox="0 0 264 332" width="264" height="332"><style>.st0{fill:#c5dfe6}</style><path d="M109.4 193.6c-1.1-11.3-.6-21 1.6-29 3.6-13.9 11.3-26.3 22.1-35.7 4.9-4.2 9.5-8.3 13.8-12.3 4-3.6 7.6-7.7 10.6-12.2 3-4.5 4.5-9.9 4.3-15.3 0-7.6-2.2-13.7-6.4-18.3s-11.9-6.9-22.8-6.9c-3.7 0-7.4.4-11.1 1.1-4 .8-8 1.9-11.8 3.3-3.9 1.4-7.6 3-11.3 4.9-3.4 1.7-6.6 3.7-9.7 5.8L72.3 47.5c8.9-6 18.5-10.7 28.7-14.1 10.8-3.7 23.9-5.6 39.2-5.6 20.5 0 36.6 5 48.1 15 11.6 9.9 17.4 23.3 17.4 40.1 0 11.1-1.5 20.4-4.4 27.7-2.7 6.8-6.4 13.1-11 18.7-4.3 5-9.1 9.6-14.4 13.6-5.2 3.8-10 8-14.5 12.6-4.4 4.6-8.2 9.8-11.1 15.5-3.1 5.9-4.6 13.5-4.6 22.6h-36.3z" class="st0"/><g id="MXpnTa"><path d="M158 232.8c-.2-2.1-.6-4.2-1-6.2-.7-3.7-2.6-7.1-5.3-9.7-3.9-3.6-8.9-3.5-12.8.1-1.8 1.7-3.2 3.8-4.1 6.1-2.2 5.3-2.8 11.1-1.6 16.7.7 3.8 2.3 7.4 4.9 10.3 2.6 2.8 5.7 4.3 9.6 3.2 2.4-.7 4.4-2.3 5.8-4.4 3.3-4.5 4.4-9.6 4.5-16.1zm-29.4 0c-.2-1.3-.4-3.7-.9-6-.8-3.8-2.7-7.3-5.5-10-3.3-3.2-8.4-3.4-11.9-.5-1.8 1.5-3.3 3.4-4.3 5.5-2.6 5.4-3.4 11.4-2.2 17.3.5 4 2.2 7.8 4.9 10.9 2.6 2.9 5.7 4.4 9.6 3.3 2.4-.8 4.5-2.3 5.9-4.4 3.2-4.5 4.3-9.6 4.4-16.1zm47.1 20.6c-.2-1.2-.2-2.4-.5-3.6-1.2-5.9-6.1-8.3-11.5-5.7-2.5 1.2-4.6 3-6.2 5.3-3.6 5-5.6 10.6-4.5 16.9.2 2.5 1.7 4.7 3.8 6 2.8 1.7 5.7 1.2 8.3-.4 7-4.2 9.9-10.7 10.6-18.5zm-75.1 19.9c2.4.1 4.6-1 6-2.9 1.5-2.3 2.2-5.1 2-7.9-.2-4.6-1.8-9-4.5-12.7-2.1-2.8-4.6-5.2-8-6.3s-7.8.3-9.4 4.3c-.6 1.5-1 3.2-1 4.8-.1 6.5 2.6 12.8 7.4 17.2 2 2 4.7 3.3 7.5 3.5zm9.9 33.1l-3.1-.7c-6.3-1.8-7.8-7.7-6.3-12.2.7-2 1.7-4 2.8-5.8 3.2-5.7 6.9-11.1 10.9-16.2 1.6-2 3.3-3.9 5.2-5.6 2.4-2.2 5.5-3.6 8.8-3.9 3.9-.7 7.8-.2 11.5 1.2 2.6 1.1 4.9 2.9 6.6 5.2 6 6.9 11.1 14.4 15.5 22.4 1.4 2.5 1.8 5.3 1.3 8.1-.9 3.8-3.4 5.9-7.1 6.9l-2.6.6h-4.3c-1.1-.2-2.1-.5-3.2-.8-1.8-.8-3.6-1.8-5.4-2.7-4.3-2-8.9-1.8-13.5-1.3-2.1.3-4.1 1.1-5.8 2.3-2.2 1.3-4.5 2.1-7 2.5h-4.3z" class="st0"/><path d="M158 232.8c-.1 6.5-1.2 11.6-4.5 16.1-1.4 2.1-3.4 3.7-5.8 4.4-3.9 1.1-7-.4-9.6-3.2-2.6-2.9-4.2-6.5-4.9-10.3-1.2-5.6-.6-11.4 1.6-16.7.9-2.3 2.3-4.4 4.1-6.1 3.9-3.6 8.9-3.7 12.8-.1 2.7 2.6 4.6 6 5.3 9.7.4 2 .8 4.1 1 6.2zm-29.4 0c-.1 6.5-1.2 11.6-4.4 16.1-1.4 2.1-3.5 3.6-5.9 4.4-3.9 1.1-7-.4-9.6-3.3-2.7-3.1-4.4-6.9-4.9-10.9-1.2-5.9-.4-11.9 2.2-17.3 1-2.1 2.5-4 4.3-5.5 3.5-2.9 8.6-2.7 11.9.5 2.8 2.7 4.7 6.2 5.5 10 .5 2.3.7 4.7.9 6zm47.1 20.6c-.7 7.8-3.6 14.3-10.6 18.5-2.6 1.6-5.5 2.1-8.3.4-2.1-1.3-3.6-3.5-3.8-6-1.1-6.3.9-11.9 4.5-16.9 1.6-2.3 3.7-4.1 6.2-5.3 5.4-2.6 10.3-.2 11.5 5.7.3 1.2.3 2.4.5 3.6zm-75.1 19.9c-2.8-.2-5.5-1.5-7.5-3.5-4.8-4.4-7.5-10.7-7.4-17.2 0-1.6.4-3.3 1-4.8 1.6-4 5.3-5.6 9.4-4.3s5.9 3.5 8 6.3c2.7 3.7 4.3 8.1 4.5 12.7.2 2.8-.5 5.6-2 7.9-1.4 1.9-3.6 3-6 2.9z" class="st0"/></g></svg>