<svg xmlns="http://www.w3.org/2000/svg"><symbol id="instagram" viewBox="0 0 128 128"><rect width="128" height="128" fill="#273773" rx="13.3" ry="13.3"/><path fill="#fffef9" d="M63.9 85.5a22.2 22.2 0 1 1 22.2-22.2 22.2 22.2 0 0 1-22.2 22.2zm0-38.4a16.2 16.2 0 1 0 16.2 16.2 16.2 16.2 0 0 0-16.2-16.2z"/><path fill="#fffef9" d="M82.7 108.8h-39a23.4 23.4 0 0 1-23.4-23.4V43.3a23.4 23.4 0 0 1 23.4-23.4h39a23.4 23.4 0 0 1 23.4 23.4v42.1a23.4 23.4 0 0 1-23.4 23.4zm-39-83.3A17.7 17.7 0 0 0 26 43.3v42.1a17.7 17.7 0 0 0 17.7 17.7h39a17.7 17.7 0 0 0 17.7-17.7V43.3a17.7 17.7 0 0 0-17.7-17.7z"/><circle cx="88.9" cy="40.1" r="4.6" fill="#fffef9"/></symbol><symbol id="facebook" viewBox="0 0 128 128"><path fill="#273773" d="M114.7 0H13.3A13.3 13.3 0 0 0 0 13.3v101.4A13.3 13.3 0 0 0 13.3 128h54.1V75H56.8V54.3h10.6V40.7s-.7-16 15.7-17.3h23v17H92.8a3.4 3.4 0 0 0-3 3.5c-.2 3.3-.2 10.3-.2 10.3h16.5l-2 21.5H88.4V128h26.3a13.3 13.3 0 0 0 13.3-13.3V13.3A13.3 13.3 0 0 0 114.7 0z"/></symbol><symbol id="linkedin" viewBox="0 0 128 128"><rect width="128" height="128" y=".4" fill="#273773" rx="13.3" ry="13.3"/><path fill="#fffef9" d="M24.4 51h18.5v52.5H24.4z"/><circle cx="33.7" cy="34" r="9.3" fill="#fffef9"/><path fill="#fffef9" d="M53.7 51v52.5h15.5V71.8s2-8.8 10-7.4a8.9 8.9 0 0 1 7.8 8.9v30.2h16.7v-34S104.2 51 86.2 51c0 0-13.9-.6-18.2 7.5V51z"/></symbol><symbol id="twitter" viewBox="0 0 128 128"><rect width="128" height="128" y=".4" fill="#273773" rx="13.3" ry="13.3"/><g fill="#fffef9"><path d="M103.9 39.9c-2.3.1-4.5 1.6-7.2 1.3 2.7-2.4 5.1-4.6 5.8-8.3l-4.7 2c-2.9 1.2-5.4 1.5-8.4-.8C84 30 77.9 30 71.9 33.4s-9.1 9.2-8.4 16.3c.2 2.6-1.2 2-2.5 1.9a48.6 48.6 0 0 1-14.4-3.9 51.5 51.5 0 0 1-17.7-13.4c-1.8 3.8-2.6 7.2-2 11.1s3.3 7.5 5.9 10.7a7.1 7.1 0 0 1-4.6-.8c-1.7-.7-1.9.1-1.6 1.4a20.8 20.8 0 0 0 2.4 6.9c2.3 3.7 5.7 6 10.2 7.6l-3.1.7c-3.6.4-3.8.9-1.6 4.1.5.7 1.1 1.3 1.7 1.9 2.9 3.3 6.8 4.7 11.4 5.5l-1.9 1.5c-6.4 4.4-13.7 5.5-21.2 5.8l-.2-.2h.3c10.6 6.9 22.2 8.6 34.3 6.1a47.5 47.5 0 0 0 38-46.2 5.1 5.1 0 0 1 1.9-4.4c2-1.7 4.1-3.4 5.3-5.9l.3-.4c-.2-.3-.4-.1-.5.2z"/><path d="M24.5 90.7c7.5-.3 14.9-1.4 21.2-5.8l1.9-1.5c-4.5-.9-8.5-2.2-11.4-5.5-.6-.6-1.2-1.2-1.7-1.9-2.3-3.2-2.1-3.7 1.6-4.1l3.1-.7c-4.5-1.7-7.9-3.9-10.2-7.6a20.8 20.8 0 0 1-2.4-6.9c-.3-1.3-.1-2.1 1.6-1.4a7.1 7.1 0 0 0 4.6.8l.3.3v-.2h-.3c-2.7-3.2-5.2-6.3-5.9-10.7s.2-7.3 2-11.1a51.5 51.5 0 0 0 17.6 13.2 48.6 48.6 0 0 0 14.4 3.9c1.2.2 2.7.7 2.5-1.9-.7-7.1 2.2-12.7 8.4-16.3s12.1-3.3 17.5.7c3 2.3 5.5 2 8.4.8l4.7-2c-.8 3.7-3.2 5.9-5.8 8.3 2.8.3 4.9-1.2 7.2-1.3l.3.3c-1.1 2.5-3.2 4.2-5.3 5.9a5.1 5.1 0 0 0-1.9 4.4 47.5 47.5 0 0 1-38 46.4c-12.1 2.5-23.7.8-34.3-6.1z"/><path d="M103.9 39.9c.2-.2.4-.5.6-.1l-.3.4zM24.6 90.7h-.3l.2.2zm8.3-34.6h.3v.2l-.3-.3z"/></g></symbol></svg>