<svg xmlns="http://www.w3.org/2000/svg" id="Layer_1" viewBox="0 0 170 107.1" width="170" height="107.1"><style>.st0,.st1{stroke:#fdba18;stroke-linecap:round;stroke-linejoin:round}.st0{fill:none;stroke-width:4.66}.st1{stroke-width:2.14}.st1,.st2{fill:#fdba18}</style><path d="M51.4 28.7L85.6 4l34 24.4" class="st0"/><path d="M85.8 35.7c-2.9-5-9.3-6.8-14.3-4-.2.1-.4.2-.6.4-4.7 3.3-4.3 9.3-2.5 14.1 1.1 2.9 2.5 5.6 4.2 8.2.9 1.4 2 2.8 3 4.1l3 4c-5.9.2-11.7 0-17.6 0v-34L85.5 11l24.7 17.4v34.1H94.5c3.1-5.9 7.4-11.1 9.3-17.7 1.4-4.8 1.1-10.6-3.6-13.4s-11.4-.3-14.1 4.5l-.3-.2z" class="st1"/><path d="M2.8 78.1h5v16.6h7.1v3.6H2.8V78.1zM27.2 85c1.2 1.6 1.7 3.6 1.6 5.6 0 1.1-.1 2.2-.4 3.2-.3.9-.7 1.8-1.3 2.5-.6.7-1.3 1.3-2.2 1.7-1 .4-2 .6-3.1.6s-2.1-.1-3.1-.5c-.8-.3-1.5-.8-2.1-1.5s-1-1.5-1.2-2.4c-.3-1-.4-2.1-.4-3.2s.1-2.2.4-3.2c.3-.9.7-1.8 1.3-2.5s1.3-1.3 2.2-1.7c1-.4 2-.6 3.1-.6 2.3 0 4.1.7 5.2 2zm-6.4 1.8c-.3.2-.5.6-.6.9-.2.4-.3.9-.3 1.3-.1.5-.1 1.1-.1 1.6 0 .6 0 1.1.1 1.7 0 .5.1.9.3 1.4.1.3.3.7.6.9.3.2.7.3 1.1.3.3 0 .6-.1.9-.3.3-.2.5-.6.6-.9.2-.4.3-.9.3-1.3.1-.5.1-1 .1-1.6s0-1.1-.1-1.7c0-.5-.1-.9-.3-1.4-.1-.3-.3-.7-.6-.9-.3-.2-.7-.3-1.1-.3s-.7.2-.9.3zm23.3 4.6c0 .6.1 1.2.2 1.8l.4 1.6.4 1.6c.1.6.2 1.2.2 1.8.1 1.8-.6 3.5-1.8 4.8-1.3 1.2-3 1.8-4.8 1.7-1 0-1.9-.1-2.9-.3l-2.9-.9 1.1-3.7 2.3.7 2.1.3c.7 0 1.4-.2 1.9-.7s.8-1.3.7-2c0-.4 0-.7-.1-1.1s-.2-.7-.3-1.1c-.5.9-1.2 1.6-2.1 2-.9.4-1.9.6-2.9.6-.7 0-1.4-.1-2-.4-.5-.3-1-.6-1.3-1.1s-.6-1-.7-1.6c-.2-.7-.2-1.5-.2-2.2v-10H36v9.4c0 .6.1 1.2.3 1.7.1.4.5.6.9.6l.8-.3c.3-.2.5-.5.7-.8.2-.4.4-.8.5-1.3.1-.6.2-1.1.2-1.7v-7.5h4.8l-.1 8.1zm16.3-.3c0 1 0 2 .2 3 .1.7.3 1.3.6 1.9.2.5.4 1 .8 1.4l-3.8 1.2-.6-.7-.5-.9c-.2-.4-.3-.9-.4-1.3-.3.9-.8 1.6-1.5 2.2-.8.5-1.7.8-2.6.8-.9 0-1.8-.1-2.6-.5-.7-.3-1.3-.9-1.8-1.5-.5-.7-.9-1.5-1.1-2.4-.2-1-.3-2.1-.3-3.1 0-1.1.2-2.2.6-3.2.3-.9.8-1.8 1.5-2.5s1.5-1.3 2.4-1.7c1-.4 2-.6 3.1-.6h2l1.9.3 1.5.3h.6v7.3zm-6.1 3.5c.3-.3.5-.7.7-1.1.2-.5.4-1 .5-1.5.1-.6.2-1.2.2-1.8v-3.4l-.6-.2h-.6c-.4 0-.8.1-1.2.3-.3.2-.6.5-.8.9s-.3.8-.4 1.3c-.1.6-.1 1.1-.1 1.7v1.6c0 .5.1.9.2 1.4.1.4.3.7.5 1s.5.4.8.4c.3-.1.6-.2.8-.6zm11.8 3.6c-.5-.2-.9-.5-1.2-.8-.3-.3-.6-.8-.7-1.2-.1-.5-.2-1-.2-1.5V77.4l4.7-.8v17c0 .4.1.7.3 1 .2.2.6.3.9.3h1.5l.4 3-1.5.5c-.8.2-1.6.3-2.4.3-.6 0-1.3-.2-1.8-.5zm15.4-20.1h6.2c2.5 0 4.5.5 5.8 1.5 1.3 1.1 2 2.7 1.9 4.4.1 1.1-.3 2.3-.9 3.2-.7.8-1.5 1.5-2.5 1.9.6.4 1.2.8 1.6 1.4.5.6.9 1.3 1.3 2 .4.8.8 1.7 1.3 2.7l1.4 3.4h-5.3l-1.6-3.7c-.5-1.1-.9-2-1.2-2.7-.3-.6-.7-1.2-1.1-1.7-.3-.4-.8-.6-1.3-.6h-.5v8.6h-5l-.1-20.4zm5 8.6h1.3c.7 0 1.3-.2 1.8-.6.5-.5.8-1.3.7-2 0-.4 0-.7-.1-1.1-.1-.3-.2-.6-.4-.9-.2-.3-.5-.5-.8-.6l-1.3-.2h-1.1l-.1 5.4zm11.9 1c.3-1 .9-1.9 1.6-2.6s1.5-1.2 2.4-1.6c1-.4 2-.5 3-.5.8 0 1.6.1 2.4.3.6.2 1.1.6 1.6 1 .4.4.7.9.9 1.4.2.6.3 1.2.3 1.8 0 .7-.2 1.4-.5 2-.4.7-.9 1.2-1.5 1.7-.7.5-1.5.9-2.4 1.2-1 .3-2.1.5-3.2.6.1.6.4 1.1.8 1.5.5.4 1.1.6 1.7.6h1.4l1.4-.3 1.5-.5.9 3.1-1.8.7-1.9.5-2.3.2c-1.1 0-2.1-.1-3.1-.5-.8-.3-1.5-.8-2.1-1.5s-1-1.5-1.2-2.3c-.3-1-.4-2-.4-3-.1-1.3.1-2.6.5-3.8zm5.5-1c-.3.2-.5.6-.6.9-.2.4-.3.8-.4 1.2-.1.4-.1.9-.1 1.3l1.5-.3 1-.6c.3-.2.5-.5.6-.8.1-.2.2-.5.2-.8s-.1-.6-.3-.9c-.2-.2-.5-.3-.8-.3-.4 0-.8.1-1.1.3zm13.9-3.7l2.1.2 1.7.4 1.6.6-1.5 3.4-.6-.3-.8-.4-.9-.3h-.9l-.8.2c-.2.2-.3.4-.3.7.1.4.3.7.6.9l1.6.9c1 .4 2 1 2.8 1.8.7.8 1 1.8 1 2.8 0 .6-.1 1.2-.3 1.8-.2.6-.6 1.1-1 1.5-.5.5-1.1.9-1.7 1.1-.7.3-1.5.4-2.3.4h-2l-1.7-.4-1.4-.4-1-.4 1.6-3.4.5.3.9.4 1.1.4 1.1.2 1-.2c.2-.1.4-.4.4-.7 0-.4-.2-.8-.5-1-.4-.3-.8-.5-1.3-.7-1.2-.4-2.3-1.1-3.2-2-.7-.8-1-1.8-1-2.8 0-.6.1-1.2.4-1.8.2-.5.6-1 1-1.4.5-.4 1.1-.7 1.7-.9.6-.4 1.3-.7 2.1-.9zm16.4 4.6l-.7-.7c-.3-.2-.6-.3-1-.3h-.8c-.3.1-.6.3-.8.6-.3.4-.5.8-.6 1.3-.2.7-.3 1.5-.3 2.3s.1 1.6.3 2.3c.1.5.4.9.7 1.3.3.3.6.5 1 .6l1 .2h.8l.8-.2.6-.2h.3l.9 3.1h-.4l-.9.4-1.4.3h-1.8c-1.1 0-2.2-.1-3.2-.5-.8-.3-1.6-.8-2.2-1.5s-1-1.5-1.2-2.3c-.3-1-.4-2-.4-3 0-1.2.2-2.4.6-3.6.3-1 .8-1.8 1.5-2.6.6-.7 1.4-1.2 2.3-1.6.9-.3 1.9-.5 2.9-.5.9 0 1.8.2 2.6.6.7.4 1.3.9 1.8 1.5l-2.4 2.5zm12.3-4.3h4.7v7.8c0 1 0 2 .2 3 .1.7.3 1.3.6 1.9.2.5.4 1 .8 1.4l-3.8 1.2-.5-.7-.5-.9c-.2-.4-.3-.8-.4-1.2-.5.9-1.2 1.6-2.1 2.1-.9.4-2 .6-3 .6-.7 0-1.4-.1-2-.4-.5-.3-1-.6-1.3-1.1s-.6-1-.7-1.6c-.2-.7-.2-1.5-.2-2.2v-10h4.7v9.4c0 .6.1 1.2.3 1.7.1.4.5.6.9.6.7-.1 1.3-.5 1.6-1.1.5-.9.8-2 .7-3.1v-7.4zm8.3 4.4c.3-1 .9-1.9 1.6-2.6.7-.7 1.5-1.2 2.4-1.6 1-.4 2-.5 3-.5.8 0 1.6.1 2.4.3.6.2 1.1.6 1.6 1 .4.4.7.9.9 1.4.2.6.3 1.2.3 1.8 0 .7-.2 1.4-.5 2-.4.7-.9 1.2-1.5 1.7-.7.5-1.5.9-2.4 1.2-1 .3-2.1.5-3.2.6.1.6.4 1.1.8 1.5.5.4 1.1.6 1.7.6h1.4l1.4-.3 1.5-.5.9 3.1-1.8.7-1.9.5-2.3.2c-1.1 0-2.1-.1-3.1-.5-.8-.3-1.5-.8-2.1-1.5s-1-1.5-1.2-2.3c-.3-1-.4-2-.4-3-.1-1.3.1-2.6.5-3.8zm5.5-1c-.3.2-.5.6-.6.9-.2.4-.3.8-.4 1.2-.1.4-.1.9-.1 1.3l1.5-.3 1-.6c.3-.2.5-.5.6-.8.1-.2.2-.5.2-.8s-.1-.6-.3-.9c-.2-.2-.5-.3-.8-.3-.4-.1-.9 0-1.2.3h.1z" class="st2"/></svg>