<?xml version="1.0" encoding="utf-8"?>
<!-- Generator: Adobe Illustrator 22.0.1, SVG Export Plug-In . SVG Version: 6.00 Build 0)  -->
<svg version="1.1" id="Layer_1" xmlns="http://www.w3.org/2000/svg" xmlns:xlink="http://www.w3.org/1999/xlink" x="0px" y="0px"
	 viewBox="0 0 170 107.1" style="enable-background:new 0 0 170 107.1;" xml:space="preserve">
<style type="text/css">
	.st0{fill:none;stroke:#003B46;stroke-width:4.66;stroke-linecap:round;stroke-linejoin:round;}
	.st1{fill:#003B46;stroke:#003B46;stroke-width:2.14;stroke-linecap:round;stroke-linejoin:round;}
	.st2{fill:#003B46;}
</style>
<title>wordmark</title>
<g>
	<polyline class="st0" points="51.4,28.7 85.6,4 119.6,28.4 	"/>
	<path class="st1" d="M85.8,35.7c-2.9-5-9.3-6.8-14.3-4c-0.2,0.1-0.4,0.2-0.6,0.4c-4.7,3.3-4.3,9.3-2.5,14.1
		c1.1,2.9,2.5,5.6,4.2,8.2c0.9,1.4,2,2.8,3,4.1l3,4c-5.9,0.2-11.7,0-17.6,0v-34L85.5,11l24.7,17.4v34.1H94.5
		c3.1-5.9,7.4-11.1,9.3-17.7c1.4-4.8,1.1-10.6-3.6-13.4c-4.7-2.8-11.4-0.3-14.1,4.5L85.8,35.7z"/>
</g>
<path class="st2" d="M2.8,78.1h5v16.6h7.1v3.6H2.8V78.1z"/>
<path class="st2" d="M27.2,85c1.2,1.6,1.7,3.6,1.6,5.6c0,1.1-0.1,2.2-0.4,3.2c-0.3,0.9-0.7,1.8-1.3,2.5c-0.6,0.7-1.3,1.3-2.2,1.7
	c-1,0.4-2,0.6-3.1,0.6s-2.1-0.1-3.1-0.5c-0.8-0.3-1.5-0.8-2.1-1.5s-1-1.5-1.2-2.4c-0.3-1-0.4-2.1-0.4-3.2s0.1-2.2,0.4-3.2
	c0.3-0.9,0.7-1.8,1.3-2.5s1.3-1.3,2.2-1.7c1-0.4,2-0.6,3.1-0.6C24.3,83,26.1,83.7,27.2,85z M20.8,86.8c-0.3,0.2-0.5,0.6-0.6,0.9
	c-0.2,0.4-0.3,0.9-0.3,1.3c-0.1,0.5-0.1,1.1-0.1,1.6c0,0.6,0,1.1,0.1,1.7c0,0.5,0.1,0.9,0.3,1.4c0.1,0.3,0.3,0.7,0.6,0.9
	c0.3,0.2,0.7,0.3,1.1,0.3c0.3,0,0.6-0.1,0.9-0.3c0.3-0.2,0.5-0.6,0.6-0.9c0.2-0.4,0.3-0.9,0.3-1.3c0.1-0.5,0.1-1,0.1-1.6
	s0-1.1-0.1-1.7c0-0.5-0.1-0.9-0.3-1.4c-0.1-0.3-0.3-0.7-0.6-0.9c-0.3-0.2-0.7-0.3-1.1-0.3S21,86.7,20.8,86.8L20.8,86.8z"/>
<path class="st2" d="M44.1,91.4c0,0.6,0.1,1.2,0.2,1.8l0.4,1.6l0.4,1.6c0.1,0.6,0.2,1.2,0.2,1.8c0.1,1.8-0.6,3.5-1.8,4.8
	c-1.3,1.2-3,1.8-4.8,1.7c-1,0-1.9-0.1-2.9-0.3l-2.9-0.9l1.1-3.7l2.3,0.7l2.1,0.3c0.7,0,1.4-0.2,1.9-0.7s0.8-1.3,0.7-2
	c0-0.4,0-0.7-0.1-1.1s-0.2-0.7-0.3-1.1c-0.5,0.9-1.2,1.6-2.1,2c-0.9,0.4-1.9,0.6-2.9,0.6c-0.7,0-1.4-0.1-2-0.4
	c-0.5-0.3-1-0.6-1.3-1.1s-0.6-1-0.7-1.6c-0.2-0.7-0.2-1.5-0.2-2.2v-10H36v9.4c0,0.6,0.1,1.2,0.3,1.7c0.1,0.4,0.5,0.6,0.9,0.6
	l0.8-0.3c0.3-0.2,0.5-0.5,0.7-0.8c0.2-0.4,0.4-0.8,0.5-1.3c0.1-0.6,0.2-1.1,0.2-1.7v-7.5h4.8L44.1,91.4z"/>
<path class="st2" d="M60.4,91.1c0,1,0,2,0.2,3c0.1,0.7,0.3,1.3,0.6,1.9c0.2,0.5,0.4,1,0.8,1.4l-3.8,1.2l-0.6-0.7L57.1,97
	c-0.2-0.4-0.3-0.9-0.4-1.3c-0.3,0.9-0.8,1.6-1.5,2.2c-0.8,0.5-1.7,0.8-2.6,0.8c-0.9,0-1.8-0.1-2.6-0.5c-0.7-0.3-1.3-0.9-1.8-1.5
	c-0.5-0.7-0.9-1.5-1.1-2.4c-0.2-1-0.3-2.1-0.3-3.1c0-1.1,0.2-2.2,0.6-3.2c0.3-0.9,0.8-1.8,1.5-2.5s1.5-1.3,2.4-1.7
	c1-0.4,2-0.6,3.1-0.6h2l1.9,0.3l1.5,0.3h0.6C60.4,83.8,60.4,91.1,60.4,91.1z M54.3,94.6c0.3-0.3,0.5-0.7,0.7-1.1
	c0.2-0.5,0.4-1,0.5-1.5c0.1-0.6,0.2-1.2,0.2-1.8v-3.4l-0.6-0.2h-0.6c-0.4,0-0.8,0.1-1.2,0.3c-0.3,0.2-0.6,0.5-0.8,0.9
	s-0.3,0.8-0.4,1.3C52,89.7,52,90.2,52,90.8c0,0.5,0,1.1,0,1.6s0.1,0.9,0.2,1.4c0.1,0.4,0.3,0.7,0.5,1s0.5,0.4,0.8,0.4
	C53.8,95.1,54.1,95,54.3,94.6L54.3,94.6z"/>
<path class="st2" d="M66.1,98.2c-0.5-0.2-0.9-0.5-1.2-0.8c-0.3-0.3-0.6-0.8-0.7-1.2c-0.1-0.5-0.2-1-0.2-1.5V77.4l4.7-0.8v17
	c0,0.4,0.1,0.7,0.3,1c0.2,0.2,0.6,0.3,0.9,0.3h1.5l0.4,3l-1.5,0.5c-0.8,0.2-1.6,0.3-2.4,0.3C67.3,98.7,66.6,98.5,66.1,98.2z"/>
<path class="st2" d="M81.5,78.1h6.2c2.5,0,4.5,0.5,5.8,1.5c1.3,1.1,2,2.7,1.9,4.4c0.1,1.1-0.3,2.3-0.9,3.2C93.8,88,93,88.7,92,89.1
	c0.6,0.4,1.2,0.8,1.6,1.4c0.5,0.6,0.9,1.3,1.3,2c0.4,0.8,0.8,1.7,1.3,2.7l1.4,3.4h-5.3l-1.6-3.7c-0.5-1.1-0.9-2-1.2-2.7
	c-0.3-0.6-0.7-1.2-1.1-1.7c-0.3-0.4-0.8-0.6-1.3-0.6h-0.5v8.6h-5L81.5,78.1z M86.5,86.7h1.3c0.7,0,1.3-0.2,1.8-0.6
	c0.5-0.5,0.8-1.3,0.7-2c0-0.4,0-0.7-0.1-1.1c-0.1-0.3-0.2-0.6-0.4-0.9c-0.2-0.3-0.5-0.5-0.8-0.6l-1.3-0.2h-1.1L86.5,86.7z"/>
<path class="st2" d="M98.4,87.7c0.3-1,0.9-1.9,1.6-2.6s1.5-1.2,2.4-1.6c1-0.4,2-0.5,3-0.5c0.8,0,1.6,0.1,2.4,0.3
	c0.6,0.2,1.1,0.6,1.6,1c0.4,0.4,0.7,0.9,0.9,1.4c0.2,0.6,0.3,1.2,0.3,1.8c0,0.7-0.2,1.4-0.5,2c-0.4,0.7-0.9,1.2-1.5,1.7
	c-0.7,0.5-1.5,0.9-2.4,1.2c-1,0.3-2.1,0.5-3.2,0.6c0.1,0.6,0.4,1.1,0.8,1.5c0.5,0.4,1.1,0.6,1.7,0.6h1.4l1.4-0.3l1.5-0.5l0.9,3.1
	l-1.8,0.7l-1.9,0.5l-2.3,0.2c-1.1,0-2.1-0.1-3.1-0.5c-0.8-0.3-1.5-0.8-2.1-1.5s-1-1.5-1.2-2.3c-0.3-1-0.4-2-0.4-3
	C97.8,90.2,98,88.9,98.4,87.7z M103.9,86.7c-0.3,0.2-0.5,0.6-0.6,0.9c-0.2,0.4-0.3,0.8-0.4,1.2c-0.1,0.4-0.1,0.9-0.1,1.3l1.5-0.3
	l1-0.6c0.3-0.2,0.5-0.5,0.6-0.8c0.1-0.2,0.2-0.5,0.2-0.8s-0.1-0.6-0.3-0.9c-0.2-0.2-0.5-0.3-0.8-0.3
	C104.6,86.4,104.2,86.5,103.9,86.7z"/>
<path class="st2" d="M117.8,83l2.1,0.2l1.7,0.4l1.6,0.6l-1.5,3.4l-0.6-0.3l-0.8-0.4l-0.9-0.3h-0.9l-0.8,0.2
	c-0.2,0.2-0.3,0.4-0.3,0.7c0.1,0.4,0.3,0.7,0.6,0.9l1.6,0.9c1,0.4,2,1,2.8,1.8c0.7,0.8,1,1.8,1,2.8c0,0.6-0.1,1.2-0.3,1.8
	c-0.2,0.6-0.6,1.1-1,1.5c-0.5,0.5-1.1,0.9-1.7,1.1c-0.7,0.3-1.5,0.4-2.3,0.4h-2l-1.7-0.4l-1.4-0.4l-1-0.4l1.6-3.4l0.5,0.3l0.9,0.4
	l1.1,0.4l1.1,0.2l1-0.2c0.2-0.1,0.4-0.4,0.4-0.7c0-0.4-0.2-0.8-0.5-1c-0.4-0.3-0.8-0.5-1.3-0.7c-1.2-0.4-2.3-1.1-3.2-2
	c-0.7-0.8-1-1.8-1-2.8c0-0.6,0.1-1.2,0.4-1.8c0.2-0.5,0.6-1,1-1.4c0.5-0.4,1.1-0.7,1.7-0.9C116.3,83.5,117,83.2,117.8,83z"/>
<path class="st2" d="M134.2,87.6l-0.7-0.7c-0.3-0.2-0.6-0.3-1-0.3h-0.8c-0.3,0.1-0.6,0.3-0.8,0.6c-0.3,0.4-0.5,0.8-0.6,1.3
	c-0.2,0.7-0.3,1.5-0.3,2.3s0.1,1.6,0.3,2.3c0.1,0.5,0.4,0.9,0.7,1.3c0.3,0.3,0.6,0.5,1,0.6l1,0.2h0.8l0.8-0.2l0.6-0.2h0.3l0.9,3.1
	H136l-0.9,0.4l-1.4,0.3h-1.8c-1.1,0-2.2-0.1-3.2-0.5c-0.8-0.3-1.6-0.8-2.2-1.5s-1-1.5-1.2-2.3c-0.3-1-0.4-2-0.4-3
	c0-1.2,0.2-2.4,0.6-3.6c0.3-1,0.8-1.8,1.5-2.6c0.6-0.7,1.4-1.2,2.3-1.6c0.9-0.3,1.9-0.5,2.9-0.5c0.9,0,1.8,0.2,2.6,0.6
	c0.7,0.4,1.3,0.9,1.8,1.5L134.2,87.6z"/>
<path class="st2" d="M146.5,83.3h4.7v7.8c0,1,0,2,0.2,3c0.1,0.7,0.3,1.3,0.6,1.9c0.2,0.5,0.4,1,0.8,1.4l-3.8,1.2l-0.5-0.7L148,97
	c-0.2-0.4-0.3-0.8-0.4-1.2c-0.5,0.9-1.2,1.6-2.1,2.1c-0.9,0.4-2,0.6-3,0.6c-0.7,0-1.4-0.1-2-0.4c-0.5-0.3-1-0.6-1.3-1.1
	s-0.6-1-0.7-1.6c-0.2-0.7-0.2-1.5-0.2-2.2v-10h4.7v9.4c0,0.6,0.1,1.2,0.3,1.7c0.1,0.4,0.5,0.6,0.9,0.6c0.7-0.1,1.3-0.5,1.6-1.1
	c0.5-0.9,0.8-2,0.7-3.1V83.3z"/>
<path class="st2" d="M154.8,87.7c0.3-1,0.9-1.9,1.6-2.6c0.7-0.7,1.5-1.2,2.4-1.6c1-0.4,2-0.5,3-0.5c0.8,0,1.6,0.1,2.4,0.3
	c0.6,0.2,1.1,0.6,1.6,1c0.4,0.4,0.7,0.9,0.9,1.4c0.2,0.6,0.3,1.2,0.3,1.8c0,0.7-0.2,1.4-0.5,2c-0.4,0.7-0.9,1.2-1.5,1.7
	c-0.7,0.5-1.5,0.9-2.4,1.2c-1,0.3-2.1,0.5-3.2,0.6c0.1,0.6,0.4,1.1,0.8,1.5c0.5,0.4,1.1,0.6,1.7,0.6h1.4l1.4-0.3l1.5-0.5l0.9,3.1
	l-1.8,0.7l-1.9,0.5l-2.3,0.2c-1.1,0-2.1-0.1-3.1-0.5c-0.8-0.3-1.5-0.8-2.1-1.5s-1-1.5-1.2-2.3c-0.3-1-0.4-2-0.4-3
	C154.2,90.2,154.4,88.9,154.8,87.7z M160.3,86.7c-0.3,0.2-0.5,0.6-0.6,0.9c-0.2,0.4-0.3,0.8-0.4,1.2c-0.1,0.4-0.1,0.9-0.1,1.3
	l1.5-0.3l1-0.6c0.3-0.2,0.5-0.5,0.6-0.8c0.1-0.2,0.2-0.5,0.2-0.8s-0.1-0.6-0.3-0.9c-0.2-0.2-0.5-0.3-0.8-0.3c-0.4-0.1-0.9,0-1.2,0.3
	C160.2,86.7,160.3,86.7,160.3,86.7z"/>
</svg>
